<svg width="430" height="110" viewBox="0 0 430 110" fill="none" xmlns="http://www.w3.org/2000/svg">
<path fill-rule="evenodd" clip-rule="evenodd" d="M-26 37.4266L-6.19178 30.5C13.6164 37.0976 1 33 92.8493 57.2193C139 69.3886 172.082 70.4145 218.301 57.2193C293 35.8935 297.534 17.6338 337.151 4.43866C376.767 -8.75651 416.384 11.0362 436.192 17.6338L456 24.2314V110H436.192C416.384 110 376.767 110 337.151 110C297.534 110 257.918 110 218.301 110C172.082 110 132.466 110 92.8493 110C53.2329 110 13.6164 110 -6.19178 110H-26V37.4266Z" fill="url(#paint0_linear_1_2450)"/>
<defs>
<linearGradient id="paint0_linear_1_2450" x1="215" y1="0" x2="215" y2="110" gradientUnits="userSpaceOnUse">
<stop stop-color="#6DD9D3" stop-opacity="0.9"/>
<stop offset="0.5" stop-color="#5FC0C1"/>
<stop offset="1" stop-color="#4FA5B2"/>
</linearGradient>
</defs>
</svg>
