<svg width="375" height="356" viewBox="0 0 375 356" fill="none" xmlns="http://www.w3.org/2000/svg">
<path d="M258.428 12.0438L364.914 146.333C370.186 152.982 369.06 162.662 362.37 167.967L137.679 346.136C131.003 351.43 121.318 350.344 116.036 343.682L9.55021 209.393C4.27824 202.744 5.4176 193.053 12.0936 187.759L236.771 9.60016C243.461 4.29592 253.156 5.39533 258.428 12.0438Z" fill="url(#paint0_linear_2016_9710)"/>
<path d="M102.468 210.553L68.4804 237.503C66.0016 239.469 65.588 243.059 67.5547 245.539L80.2694 261.574C82.2361 264.054 85.8257 264.469 88.3045 262.504L122.292 235.553C124.771 233.588 125.184 229.998 123.218 227.518L110.513 211.496C108.56 209.005 104.947 208.587 102.468 210.553Z" fill="#FDFEFF"/>
<path d="M182.553 207L95 276.426L102.572 285.975L190.126 216.549L182.553 207Z" fill="#FDFEFF"/>
<path d="M157.178 260.602L112 296.426L119.572 305.975L164.75 270.151L157.178 260.602Z" fill="#FDFEFF"/>
<path d="M188.507 235.184L165 253.824L172.572 263.373L196.079 244.734L188.507 235.184Z" fill="#FDFEFF"/>
<path d="M235.524 63.3608C232.314 56.5341 224.18 53.5994 217.356 56.8058C210.532 60.0123 207.602 68.1458 210.811 74.9725C214.021 81.7992 222.155 84.7339 228.979 81.5275C235.803 78.321 238.734 70.1875 235.524 63.3608Z" fill="#FDFEFF"/>
<path d="M250.524 52.3608C247.314 45.5341 239.18 42.5994 232.356 45.8058C225.532 49.0123 222.602 57.1458 225.811 63.9725C229.021 70.7992 237.155 73.7339 243.979 70.5275C250.803 67.321 253.734 59.1875 250.524 52.3608Z" fill="#FDFEFF"/>
<defs>
<linearGradient id="paint0_linear_2016_9710" x1="124.439" y1="98.6745" x2="250.025" y2="257.052" gradientUnits="userSpaceOnUse">
<stop stop-color="#6DD9D3" stop-opacity="0.9"/>
<stop offset="0.5" stop-color="#5FC0C1"/>
<stop offset="1" stop-color="#4FA5B2"/>
</linearGradient>
</defs>
</svg>
