<svg width="24" height="24" viewBox="0 0 24 24" fill="none" xmlns="http://www.w3.org/2000/svg">
<path d="M9.82367 19.6473C7.88073 19.6473 5.98143 19.0712 4.36593 17.9918C2.75044 16.9123 1.49132 15.3781 0.747786 13.583C0.00425639 11.788 -0.190285 9.81277 0.188763 7.90717C0.567812 6.00156 1.50343 4.25115 2.87729 2.87729C4.25115 1.50343 6.00156 0.567812 7.90717 0.188763C9.81277 -0.190285 11.788 0.00425639 13.583 0.747787C15.3781 1.49132 16.9123 2.75044 17.9917 4.36593C19.0712 5.98143 19.6473 7.88073 19.6473 9.82367C19.6442 12.4281 18.6081 14.9249 16.7665 16.7665C14.9249 18.6082 12.4281 19.6442 9.82367 19.6473ZM9.82367 2.18304C8.3125 2.18304 6.83526 2.63116 5.57876 3.47072C4.32227 4.31028 3.34295 5.50359 2.76465 6.89973C2.18635 8.29587 2.03504 9.83215 2.32985 11.3143C2.62467 12.7964 3.35237 14.1579 4.42093 15.2264C5.48949 16.295 6.85092 17.0227 8.33306 17.3175C9.81519 17.6123 11.3515 17.461 12.7476 16.8827C14.1438 16.3044 15.3371 15.3251 16.1766 14.0686C17.0162 12.8121 17.4643 11.3348 17.4643 9.82367C17.462 7.79796 16.6563 5.85588 15.2239 4.42348C13.7915 2.99109 11.8494 2.18535 9.82367 2.18304Z" fill="#898989"/>
<path d="M6.54925 9.82368H4.36621C4.36794 8.37677 4.9435 6.98962 5.96662 5.9665C6.98974 4.94337 8.37689 4.36782 9.8238 4.36609V6.54913C8.95534 6.54913 8.12244 6.89412 7.50834 7.50822C6.89425 8.12232 6.54925 8.95522 6.54925 9.82368Z" fill="#898989"/>
<path d="M23.6938 22.1503L19.0483 17.5048C18.5818 18.0651 18.0652 18.5817 17.5049 19.0482L22.1504 23.6937C22.3562 23.8925 22.632 24.0025 22.9182 24C23.2044 23.9975 23.4781 23.8827 23.6805 23.6804C23.8829 23.478 23.9977 23.2042 24.0002 22.918C24.0026 22.6318 23.8926 22.3561 23.6938 22.1503Z" fill="#898989"/>
</svg>
