<?xml version="1.0" encoding="UTF-8"?>
<svg version="1.1" xmlns="http://www.w3.org/2000/svg" width="512" height="512">
<path d="M0 0 C0.96838806 0.00215515 1.93677612 0.0043103 2.93450928 0.00653076 C17.25143438 0.05761097 31.24098845 0.44399783 45.3125 3.3125 C46.33859375 3.51649414 47.3646875 3.72048828 48.421875 3.93066406 C93.05493007 13.01327924 134.10503836 32.05912667 168.3125 62.3125 C169.56546875 63.39917969 169.56546875 63.39917969 170.84375 64.5078125 C181.91897413 74.2525714 192.26364912 84.65212414 201.3125 96.3125 C202.075625 97.24707031 202.83875 98.18164062 203.625 99.14453125 C211.46588144 108.93306753 217.93436966 119.53001208 224.3125 130.3125 C224.89644531 131.28993164 224.89644531 131.28993164 225.4921875 132.28710938 C247.32539728 169.26403044 256.79127437 213.36624954 256.625 255.9375 C256.62226578 257.39233292 256.62226578 257.39233292 256.61947632 258.8765564 C256.57408309 273.22806055 256.0687347 287.19192918 253.3125 301.3125 C253.15152832 302.20952637 252.99055664 303.10655273 252.82470703 304.03076172 C242.00212011 363.84088904 207.94435543 421.35495829 159.3125 458.3125 C158.77222168 458.72918945 158.23194336 459.14587891 157.67529297 459.57519531 C147.6802884 467.2584873 137.22040964 474.00092968 126.3125 480.3125 C125.63525879 480.70679199 124.95801758 481.10108398 124.26025391 481.50732422 C101.3416244 494.68961173 75.76677437 503.29510918 49.9375 508.625 C49.22682373 508.77243652 48.51614746 508.91987305 47.78393555 509.07177734 C32.14141634 512.05713787 16.50580394 512.6873098 0.625 512.625 C-0.34239105 512.62317719 -1.3097821 512.62135437 -2.30648804 512.61947632 C-16.63940977 512.57404826 -30.58523917 512.06516072 -44.6875 509.3125 C-45.58452637 509.15152832 -46.48155273 508.99055664 -47.40576172 508.82470703 C-107.21588904 498.00212011 -164.72995829 463.94435543 -201.6875 415.3125 C-202.10418945 414.77222168 -202.52087891 414.23194336 -202.95019531 413.67529297 C-210.6334873 403.6802884 -217.37592968 393.22040964 -223.6875 382.3125 C-224.08179199 381.63525879 -224.47608398 380.95801758 -224.88232422 380.26025391 C-238.06461173 357.3416244 -246.67010918 331.76677437 -252 305.9375 C-252.14743652 305.22682373 -252.29487305 304.51614746 -252.44677734 303.78393555 C-255.43213787 288.14141634 -256.0623098 272.50580394 -256 256.625 C-255.99817719 255.65760895 -255.99635437 254.6902179 -255.99447632 253.69351196 C-255.94904826 239.36059023 -255.44016072 225.41476083 -252.6875 211.3125 C-252.44604248 209.96696045 -252.44604248 209.96696045 -252.19970703 208.59423828 C-241.37712011 148.78411096 -207.31935543 91.27004171 -158.6875 54.3125 C-158.14722168 53.89581055 -157.60694336 53.47912109 -157.05029297 53.04980469 C-147.0552884 45.3665127 -136.59540964 38.62407032 -125.6875 32.3125 C-125.01025879 31.91820801 -124.33301758 31.52391602 -123.63525391 31.11767578 C-100.7166244 17.93538827 -75.14177437 9.32989082 -49.3125 4 C-48.60182373 3.85256348 -47.89114746 3.70512695 -47.15893555 3.55322266 C-31.51685465 0.56794578 -15.88048677 -0.0638264 0 0 Z M-42.6875 21.3125 C-43.6657373 21.50585938 -44.64397461 21.69921875 -45.65185547 21.8984375 C-90.07126411 30.98279186 -131.50364428 51.66667772 -163.90673828 83.5625 C-165.7033347 85.32806116 -167.52002449 87.07091596 -169.33984375 88.8125 C-176.70405173 95.93139991 -183.31439779 103.36378569 -189.41259766 111.59326172 C-190.6502098 113.26221322 -191.90803819 114.91427553 -193.16796875 116.56640625 C-223.10483879 156.47034618 -238.22087362 206.34782878 -238 255.9375 C-237.99784485 256.81334747 -237.9956897 257.68919495 -237.99346924 258.59158325 C-237.93929164 272.35316295 -237.40192791 285.78215871 -234.6875 299.3125 C-234.49414062 300.2907373 -234.30078125 301.26897461 -234.1015625 302.27685547 C-225.01720814 346.69626411 -204.33332228 388.12864428 -172.4375 420.53173828 C-170.67193884 422.3283347 -168.92908404 424.14502449 -167.1875 425.96484375 C-160.06860009 433.32905173 -152.63621431 439.93939779 -144.40673828 446.03759766 C-142.73778678 447.2752098 -141.08572447 448.53303819 -139.43359375 449.79296875 C-99.50294801 479.74987411 -49.61767105 494.84029815 0 494.625 C0.87646179 494.62317719 1.75292358 494.62135437 2.65594482 494.61947632 C16.08537209 494.57255448 29.11618719 493.98330753 42.3125 491.3125 C43.18326172 491.14621094 44.05402344 490.97992188 44.95117188 490.80859375 C80.8629466 483.84794825 115.65403961 469.25658461 144.3125 446.3125 C145.14523437 445.67054688 145.97796875 445.02859375 146.8359375 444.3671875 C153.66479889 439.04627658 160.04153473 433.27030363 166.3125 427.3125 C166.84810547 426.80557617 167.38371094 426.29865234 167.93554688 425.77636719 C175.67931808 418.39630462 182.57553904 410.66637131 188.97412109 402.09521484 C190.30315497 400.32494753 191.65861651 398.57786106 193.01953125 396.83203125 C223.6282004 357.03089467 238.84711592 306.55608678 238.625 256.6875 C238.62284485 255.81165253 238.6206897 254.93580505 238.61846924 254.03341675 C238.56429164 240.27183705 238.02692791 226.84284129 235.3125 213.3125 C235.11914062 212.3342627 234.92578125 211.35602539 234.7265625 210.34814453 C225.64220814 165.92873589 204.95832228 124.49635572 173.0625 92.09326172 C171.29693884 90.2966653 169.55408404 88.47997551 167.8125 86.66015625 C160.69360009 79.29594827 153.26121431 72.68560221 145.03173828 66.58740234 C143.36278678 65.3497902 141.71072447 64.09196181 140.05859375 62.83203125 C100.15465382 32.89516121 50.27717122 17.77912638 0.6875 18 C-0.18834747 18.00215515 -1.06419495 18.0043103 -1.96658325 18.00653076 C-15.72816295 18.06070836 -29.15715871 18.59807209 -42.6875 21.3125 Z " fill="#000000" transform="translate(255.6875,-0.3125)"/>
<path d="M0 0 C42.20691669 38.96988739 68.01581037 92.05717634 70.52734375 149.68066406 C72.45159598 206.54231756 52.98090122 261.63988833 14.40136719 303.58520508 C11.12302261 307.07787902 7.78577744 310.50765348 4.40625 313.90234375 C3.88208496 314.43053711 3.35791992 314.95873047 2.81787109 315.50292969 C-35.1782845 353.28341428 -90.34228779 372.70414665 -143.21875 373.21484375 C-203.10990334 372.97865329 -256.52626218 348.7819316 -298.59375 306.90234375 C-299.12194336 306.37817871 -299.65013672 305.85401367 -300.19433594 305.31396484 C-337.97482053 267.31780925 -357.3955529 212.15380596 -357.90625 159.27734375 C-357.67005954 99.38619041 -333.47333785 45.96983157 -291.59375 3.90234375 C-291.06958496 3.37415039 -290.54541992 2.84595703 -290.00537109 2.30175781 C-221.1082085 -66.20433575 -105.62026957 -73.00342779 0 0 Z M-256.59375 -1.09765625 C-257.60824219 -0.36546875 -258.62273437 0.36671875 -259.66796875 1.12109375 C-284.77047911 19.58958709 -304.42076982 43.2272937 -318.59375 70.90234375 C-318.92068848 71.53172852 -319.24762695 72.16111328 -319.58447266 72.80957031 C-343.56385721 119.46606474 -344.69409521 173.46564757 -329.0703125 222.8203125 C-323.25676334 240.15982336 -314.45382778 257.18521454 -303.59375 271.90234375 C-302.8615625 272.91683594 -302.129375 273.93132812 -301.375 274.9765625 C-282.90650666 300.07907286 -259.26880005 319.72936357 -231.59375 333.90234375 C-230.96436523 334.22928223 -230.33498047 334.5562207 -229.68652344 334.89306641 C-185.40295022 357.6528739 -131.88421093 360.84333195 -84.64013672 345.97265625 C-65.45541803 339.56844157 -46.96116524 330.86765017 -30.59375 318.90234375 C-29.59988281 318.19207031 -28.60601562 317.48179687 -27.58203125 316.75 C-20.91168019 311.81902708 -14.77095865 306.44911284 -8.71875 300.77734375 C-8.0172583 300.12056641 -7.3157666 299.46378906 -6.59301758 298.78710938 C30.72572637 263.26488169 51.35433169 212.57919377 52.76220703 161.37158203 C53.08400551 120.7012049 40.64808867 78.75388306 16.40625 45.90234375 C15.6740625 44.88785156 14.941875 43.87335938 14.1875 42.828125 C-4.28099334 17.72561464 -27.91869995 -1.92467607 -55.59375 -16.09765625 C-56.53782715 -16.58806396 -56.53782715 -16.58806396 -57.50097656 -17.08837891 C-119.71014731 -49.06115453 -200.30492098 -42.6343617 -256.59375 -1.09765625 Z " fill="#000000" transform="translate(399.59375,97.09765625)"/>
<path d="M0 0 C2.84698258 2.07752783 3.82708055 3.37272586 4.765625 6.77734375 C5.0511327 10.70307462 4.26887133 12.40642683 2.4375 15.875 C2.13013916 16.46176514 1.82277832 17.04853027 1.50610352 17.65307617 C-2.24799197 24.69034861 -6.34454832 31.54592109 -10.39086914 38.41748047 C-14.69306263 45.72517696 -18.87982193 53.08831867 -23 60.5 C-28.13583045 69.72957717 -33.40213192 78.87238092 -38.75 87.98046875 C-42.92244169 95.10528547 -46.98480621 102.28554015 -51 109.5 C-56.20703239 118.85238726 -61.51703692 128.13709871 -66.94555664 137.36279297 C-69.70599698 142.05448749 -72.43675177 146.75568592 -75.078125 151.515625 C-75.5625708 152.38010254 -76.0470166 153.24458008 -76.54614258 154.13525391 C-77.43747445 155.7302359 -78.31852561 157.33103337 -79.1862793 158.93896484 C-84.43923845 168.28060551 -92.20067092 172.50124544 -101.4375 177.5 C-103.68724176 178.73768784 -105.93591402 179.9773214 -108.18359375 181.21875 C-109.3216748 181.84652344 -110.45975586 182.47429687 -111.63232422 183.12109375 C-116.80003413 186.00428177 -121.90052521 188.99826851 -127 192 C-136.14847198 197.37306697 -145.37405902 202.59078067 -154.64453125 207.75 C-161.81353695 211.74964452 -168.92092763 215.84348044 -176 220 C-185.1343694 225.36329946 -194.34258025 230.57705642 -203.60058594 235.72363281 C-212.24239706 240.54095969 -220.7896563 245.51087235 -229.29882812 250.55859375 C-230.70551758 251.38810547 -230.70551758 251.38810547 -232.140625 252.234375 C-232.96079102 252.72131836 -233.78095703 253.20826172 -234.62597656 253.70996094 C-238.22232532 255.66420887 -240.92782028 257.04376244 -245.0625 256.875 C-248.52739798 255.84290273 -249.87391177 254.91352832 -252 252 C-253.35668217 247.07856621 -252.79704481 244.59392102 -250.4375 240.125 C-249.97645874 239.24485229 -249.97645874 239.24485229 -249.50610352 238.34692383 C-245.75200803 231.30965139 -241.65545168 224.45407891 -237.60913086 217.58251953 C-233.30693737 210.27482304 -229.12017807 202.91168133 -225 195.5 C-219.86416955 186.27042283 -214.59786808 177.12761908 -209.25 168.01953125 C-205.07755831 160.89471453 -201.01519379 153.71445985 -197 146.5 C-191.79296761 137.14761274 -186.48296308 127.86290129 -181.05444336 118.63720703 C-178.29400302 113.94551251 -175.56324823 109.24431408 -172.921875 104.484375 C-172.4374292 103.61989746 -171.9529834 102.75541992 -171.45385742 101.86474609 C-170.56252555 100.2697641 -169.68147439 98.66896663 -168.8137207 97.06103516 C-163.56076155 87.71939449 -155.79932908 83.49875456 -146.5625 78.5 C-144.31275824 77.26231216 -142.06408598 76.0226786 -139.81640625 74.78125 C-138.6783252 74.15347656 -137.54024414 73.52570313 -136.36767578 72.87890625 C-131.19996587 69.99571823 -126.09947479 67.00173149 -121 64 C-111.85152802 58.62693303 -102.62594098 53.40921933 -93.35546875 48.25 C-86.18646305 44.25035548 -79.07907237 40.15651956 -72 36 C-62.8656306 30.63670054 -53.65741975 25.42294358 -44.39941406 20.27636719 C-35.75760294 15.45904031 -27.2103437 10.48912765 -18.70117188 5.44140625 C-17.76337891 4.88839844 -16.82558594 4.33539063 -15.859375 3.765625 C-14.62912598 3.03520996 -14.62912598 3.03520996 -13.37402344 2.29003906 C-8.53807345 -0.33780542 -5.44050282 -1.62057531 0 0 Z M-31 34 C-45.83263859 42.10524964 -60.60940631 50.27382336 -75.17773438 58.84814453 C-82.23403169 62.99330786 -89.34865168 67.02130024 -96.5 71 C-106.05221706 76.31520147 -115.52333297 81.75547306 -124.94726562 87.29492188 C-130.58964451 90.60957372 -136.26543956 93.84757202 -142 97 C-137.06002739 102.96118297 -131.71470138 108.41486302 -126.2265625 113.87109375 C-125.3028183 114.793423 -124.3790741 115.71575226 -123.42733765 116.66603088 C-120.99324569 119.09633814 -118.55616403 121.52362496 -116.1184082 123.95025635 C-113.6226689 126.43569364 -111.12982292 128.92402932 -108.63671875 131.41210938 C-103.7606114 136.27755096 -98.88133369 141.13980198 -94 146 C-91.3091852 142.76733025 -89.06115192 139.57222803 -87.0390625 135.88671875 C-86.21921875 134.40461914 -86.21921875 134.40461914 -85.3828125 132.89257812 C-84.51269531 131.30606445 -84.51269531 131.30606445 -83.625 129.6875 C-78.84927158 121.06409964 -73.99660752 112.49733889 -69 104 C-64.23513764 95.88615433 -59.57572046 87.72197773 -55 79.5 C-49.12175839 68.93776818 -43.07884698 58.47966297 -36.9609375 48.0546875 C-36.19861816 46.74902832 -36.19861816 46.74902832 -35.42089844 45.41699219 C-34.51984359 43.88427003 -33.60769736 42.35797103 -32.68066406 40.84082031 C-31.72904616 39.26076014 -30.85423849 37.63476096 -30 36 C-30.495 35.01 -30.495 35.01 -31 34 Z M-155 111 C-159.33096343 117.79042067 -163.33372149 124.74903679 -167.3125 131.75 C-168.01870489 132.98968322 -168.72508879 134.22926449 -169.43164062 135.46875 C-170.89603509 138.03801916 -172.35966682 140.60772051 -173.82275391 143.17773438 C-177.20797288 149.12260089 -180.60453546 155.06098109 -184 161 C-185.32560929 163.31895992 -186.65116699 165.63794915 -187.9765625 167.95703125 C-188.30537918 168.53236099 -188.63419586 169.10769073 -188.97297668 169.70045471 C-191.03535567 173.30973588 -193.09535092 176.92036768 -195.15374756 180.53192139 C-196.55104537 182.98342437 -197.94899041 185.43455776 -199.34716797 187.88555908 C-200.02768825 189.07861136 -200.70802934 190.27176587 -201.38818359 191.46502686 C-205.92870638 199.42842662 -210.51288566 207.36294581 -215.25927734 215.20581055 C-217.32378802 218.37942981 -217.32378802 218.37942981 -218 222 C-214.45565573 220.65544302 -211.19200807 219.08771656 -207.88671875 217.234375 C-206.89881348 216.68144775 -205.9109082 216.12852051 -204.89306641 215.55883789 C-203.83522949 214.96192139 -202.77739258 214.36500488 -201.6875 213.75 C-200.57810059 213.12665771 -199.46870117 212.50331543 -198.32568359 211.86108398 C-189.88645955 207.10348488 -181.51753774 202.23086609 -173.16479492 197.32324219 C-164.55719349 192.28375802 -155.843472 187.44849413 -147.11083984 182.62988281 C-136.43704895 176.72418159 -125.90590325 170.5864694 -115.39257812 164.40087891 C-112.27550896 162.5758031 -109.14118974 160.7831892 -106 159 C-110.6492992 153.42361528 -115.59395464 148.24535127 -120.72265625 143.109375 C-121.5457579 142.28294495 -122.36885956 141.45651489 -123.21690369 140.6050415 C-124.94773357 138.86917397 -126.67989885 137.13463703 -128.41333008 135.40136719 C-131.06294689 132.74955274 -133.70445015 130.08982935 -136.34570312 127.4296875 C-138.0333642 125.73909408 -139.72149901 124.04897341 -141.41015625 122.359375 C-142.19673111 121.56561462 -142.98330597 120.77185425 -143.79371643 119.95404053 C-144.5347612 119.21607239 -145.27580597 118.47810425 -146.03930664 117.71777344 C-146.68517227 117.07048279 -147.3310379 116.42319214 -147.99647522 115.75628662 C-150.18654536 113.83647464 -152.46627235 112.42593304 -155 111 Z " fill="#000000" transform="translate(380,128)"/>
<path d="M0 0 C2.43119623 1.87015094 3.64069173 3.28138345 5 6 C5.28544013 11.65279853 5.31378534 17.30674035 5.35009766 22.96606445 C5.36665332 24.85844219 5.39393835 26.7507575 5.43212891 28.64282227 C5.48694472 31.37288814 5.50877818 34.1014889 5.5234375 36.83203125 C5.54610687 37.67490189 5.56877625 38.51777252 5.59213257 39.38618469 C5.57641771 43.76421688 5.426298 45.46085327 2.61962891 49.01049805 C-0.17637293 51.13394809 -1.50042013 52 -5 52 C-8.93614016 50.45641562 -10.63226576 49.55160136 -13 46 C-13.20861153 43.01268295 -13.30400885 40.12093218 -13.30078125 37.1328125 C-13.30506638 36.26107391 -13.3093515 35.38933533 -13.31376648 34.49118042 C-13.31950911 32.64696114 -13.32001053 30.80271921 -13.31567383 28.95849609 C-13.31251961 26.14250804 -13.33595338 23.32757645 -13.36132812 20.51171875 C-13.36360176 18.71875132 -13.36430432 16.92578108 -13.36328125 15.1328125 C-13.372491 14.29307892 -13.38170074 13.45334534 -13.39118958 12.58816528 C-13.35434507 7.91061089 -13.05125415 4.79279771 -10 1 C-6.80766515 -0.59616743 -3.46538503 -0.51466114 0 0 Z " fill="#000000" transform="translate(260,384)"/>
<path d="M0 0 C1.89237774 -0.01655567 3.78469305 -0.04384069 5.67675781 -0.08203125 C8.40682369 -0.13684706 11.13542445 -0.15868052 13.8659668 -0.17333984 C15.13027275 -0.2073439 15.13027275 -0.2073439 16.42012024 -0.24203491 C20.79815242 -0.22632005 22.49478882 -0.07620034 26.04443359 2.73046875 C28.16788363 5.52647058 29.03393555 6.85051779 29.03393555 10.35009766 C27.49035117 14.28623782 26.5855369 15.98236342 23.03393555 18.35009766 C20.0466185 18.55870918 17.15486773 18.65410651 14.16674805 18.65087891 C13.29500946 18.65516403 12.42327087 18.65944916 11.52511597 18.66386414 C9.68089669 18.66960677 7.83665476 18.67010819 5.99243164 18.66577148 C3.17644359 18.66261727 0.361512 18.68605104 -2.4543457 18.71142578 C-4.24731313 18.71369942 -6.04028338 18.71440197 -7.83325195 18.71337891 C-8.67298553 18.72258865 -9.51271912 18.7317984 -10.37789917 18.74128723 C-15.05545357 18.70444273 -18.17326674 18.40135181 -21.96606445 15.35009766 C-23.56223188 12.1577628 -23.4807256 8.81548269 -22.96606445 5.35009766 C-17.41270332 -1.86927181 -8.27563988 0.05309957 0 0 Z " fill="#000000" transform="translate(406.966064453125,246.64990234375)"/>
<path d="M0 0 C0.87173859 -0.00428513 1.74347717 -0.00857025 2.64163208 -0.01298523 C4.48585136 -0.01872786 6.33009329 -0.01922928 8.17431641 -0.01489258 C10.99030446 -0.01173836 13.80523605 -0.03517213 16.62109375 -0.06054688 C18.41406118 -0.06282051 20.20703142 -0.06352307 22 -0.0625 C22.83973358 -0.07170975 23.67946716 -0.08091949 24.54464722 -0.09040833 C29.22220161 -0.05356382 32.34001479 0.2495271 36.1328125 3.30078125 C37.72897993 6.4931161 37.64747364 9.83539622 37.1328125 13.30078125 C35.26266156 15.73197748 33.85142905 16.94147298 31.1328125 18.30078125 C25.48001397 18.58622138 19.82607215 18.61456659 14.16674805 18.65087891 C12.27437031 18.66743457 10.382055 18.6947196 8.48999023 18.73291016 C5.75992436 18.78772597 3.0313236 18.80955943 0.30078125 18.82421875 C-0.9635247 18.85822281 -0.9635247 18.85822281 -2.25337219 18.89291382 C-6.63140438 18.87719896 -8.32804077 18.72707925 -11.87768555 15.92041016 C-14.00113559 13.12440832 -14.8671875 11.80036112 -14.8671875 8.30078125 C-11.76940997 0.40144856 -7.86674224 -0.00849723 0 0 Z " fill="#000000" transform="translate(90.8671875,246.69921875)"/>
<path d="M0 0 C1.98982364 1.7876291 2.88353816 3.20795873 3.27508545 5.87081909 C3.39828455 8.24095576 3.41562323 10.59154564 3.3984375 12.96484375 C3.40130768 13.83516739 3.40417786 14.70549103 3.40713501 15.60218811 C3.40917387 17.44044649 3.40365644 19.27872665 3.39111328 21.11694336 C3.3750762 23.92416171 3.3909577 26.72993612 3.41015625 29.53710938 C3.40817341 31.325524 3.40432888 33.11393773 3.3984375 34.90234375 C3.40754654 36.15723854 3.40754654 36.15723854 3.4168396 37.43748474 C3.36083638 42.10146771 3.03608704 45.21670387 0 49 C-3.19233485 50.59616743 -6.53461497 50.51466114 -10 50 C-12.43119623 48.12984906 -13.64069173 46.71861655 -15 44 C-15.28544013 38.34720147 -15.31378534 32.69325965 -15.35009766 27.03393555 C-15.36665332 25.14155781 -15.39393835 23.2492425 -15.43212891 21.35717773 C-15.48694472 18.62711186 -15.50877818 15.8985111 -15.5234375 13.16796875 C-15.54610687 12.32509811 -15.56877625 11.48222748 -15.59213257 10.61381531 C-15.57650428 6.25990186 -15.41740099 4.53580799 -12.65478516 0.98950195 C-7.91870943 -2.55972382 -5.40458393 -2.02671897 0 0 Z " fill="#000000" transform="translate(262,78)"/>
</svg>
