<?xml version="1.0" encoding="UTF-8"?>
<svg version="1.1" xmlns="http://www.w3.org/2000/svg" width="512" height="512">
<path d="M0 0 C1.7261266 -0.00461699 3.45224926 -0.01097523 5.1783638 -0.01890898 C9.88986067 -0.03551591 14.60103099 -0.02739547 19.31252861 -0.0149641 C24.40600608 -0.00588038 29.49942902 -0.01989977 34.59289551 -0.03088379 C44.55845887 -0.04863821 54.5239015 -0.04484274 64.48946953 -0.03323323 C72.59117496 -0.02418706 80.69284663 -0.02298002 88.79455566 -0.02732849 C89.9491419 -0.02794142 91.10372813 -0.02855436 92.29330182 -0.02918586 C94.63907338 -0.03046481 96.98484493 -0.03176166 99.33061647 -0.03307623 C121.30918473 -0.04447302 143.28768616 -0.03138245 165.26624346 -0.00987476 C184.11079732 0.00799538 202.95525261 0.00489102 221.79980469 -0.0135498 C243.70157366 -0.03497242 265.60328412 -0.04337446 287.5050621 -0.03110075 C289.84203846 -0.0298266 292.17901483 -0.02856912 294.51599121 -0.02732849 C295.6657252 -0.02671139 296.8154592 -0.02609429 298.00003362 -0.02545848 C306.08878186 -0.02200977 314.17749288 -0.02782363 322.26623535 -0.0372467 C332.12833745 -0.04848351 341.99031225 -0.04539124 351.85239983 -0.02412373 C356.88088356 -0.01363601 361.90915532 -0.0094526 366.93763733 -0.02272034 C371.54673348 -0.03469728 376.15542246 -0.02799477 380.76448202 -0.00681013 C382.42581709 -0.00236645 384.08718702 -0.00455967 385.74849939 -0.01431328 C401.39692895 -0.09909043 415.57944017 2.78418099 427.40527344 13.75793457 C436.97620123 23.98347771 440.80577229 36.06678768 440.80244446 49.84864807 C440.80612115 50.67356339 440.80979783 51.49847872 440.81358594 52.34839147 C440.82457405 55.10478528 440.82845832 57.86114133 440.83227539 60.61755371 C440.83854377 62.59732176 440.8451909 64.57708864 440.85218811 66.55685425 C440.87318799 73.05225817 440.88358732 79.54766222 440.89355469 86.04309082 C440.89760389 88.28337555 440.90172086 90.52366015 440.90590477 92.76394463 C440.92494821 103.29156424 440.93918051 113.81917688 440.94751674 124.3468104 C440.95728355 136.47918137 440.98359225 148.61136963 441.02401763 160.74367625 C441.05422804 170.13415778 441.06899032 179.52458708 441.07229775 188.91511625 C441.07464275 194.51751443 441.08353157 200.11971723 441.10875893 205.72206306 C441.13213061 210.99740414 441.13623637 216.27242243 441.12599754 221.54780197 C441.12550427 223.4758137 441.13176268 225.40384181 441.14555359 227.33180428 C441.25990922 244.27716657 438.91774703 258.57575249 427.15527344 271.69543457 C418.08746513 280.29241437 405.53313961 284.75138675 393.17914295 284.76520348 C392.46806675 284.76870955 391.75699055 284.77221563 391.02436659 284.77582794 C388.65343812 284.78509513 386.28275782 284.78023084 383.91181946 284.77536011 C382.19001144 284.77909873 380.46820513 284.7837011 378.74640149 284.78909075 C374.02369688 284.80130997 369.30106317 284.80106155 364.57834637 284.798702 C359.48138346 284.79829356 354.38444319 284.80933562 349.28749084 284.81881714 C339.30456642 284.83542242 329.32166561 284.84092648 319.33872852 284.84204189 C311.22260808 284.84299263 303.10649541 284.84710421 294.99037743 284.85344315 C271.97240541 284.87105459 248.95445203 284.88028222 225.93647323 284.8787822 C224.69584771 284.87870229 223.45522219 284.87862237 222.17700195 284.87854004 C220.93485903 284.87845828 219.6927161 284.87837652 218.41293248 284.87829228 C198.28542787 284.8774795 178.15799813 284.89661541 158.03051517 284.92481677 C137.35661693 284.95355481 116.68275517 284.96735655 96.00883645 284.96562922 C84.40490475 284.96496562 72.80105152 284.97044487 61.19713783 284.99198532 C51.31662807 285.01020923 41.43623234 285.0145345 31.55571304 285.00096647 C26.5171291 284.99444287 21.47876385 284.99429776 16.44020081 285.01167297 C11.82166733 285.02743554 7.20352537 285.02450757 2.58500125 285.00710471 C0.9201462 285.00404182 -0.74473831 285.00764024 -2.40955862 285.01882486 C-18.07123631 285.11701873 -32.25791388 282.24187647 -44.09472656 271.25793457 C-56.69353469 257.68086605 -57.94263851 242.13415765 -57.84643555 224.58776855 C-57.85022549 222.60534279 -57.85573107 220.62291968 -57.86280823 218.64050293 C-57.87669104 213.29134993 -57.86564404 207.94252118 -57.84909701 202.59338641 C-57.83517485 196.97628237 -57.84171465 191.35919579 -57.8452301 185.74208069 C-57.84792635 176.3131492 -57.83450624 166.88434543 -57.8112793 157.45544434 C-57.78466562 146.57686684 -57.78292717 135.69850269 -57.79466766 124.81990379 C-57.80547126 114.32431098 -57.79923861 103.82879483 -57.78511238 93.33320808 C-57.77937575 88.88015987 -57.77941689 84.42716818 -57.78417778 79.97411919 C-57.7889732 74.72495617 -57.77874016 69.47602483 -57.75722313 64.22690582 C-57.75169019 62.30816237 -57.75115757 60.38939649 -57.75617599 58.47065163 C-57.79751621 40.38827422 -55.60067355 26.41767231 -42.78613281 12.80090332 C-30.76689105 1.51243146 -15.73917593 -0.0924051 0 0 Z M-34.34472656 27.50793457 C-40.15386916 34.90273599 -41.65242273 42.71333865 -41.60542297 51.91952515 C-41.60924852 52.72784825 -41.61307407 53.53617136 -41.61701554 54.36898911 C-41.62727206 57.05713619 -41.62336746 59.74506674 -41.61938477 62.43322754 C-41.62373532 64.36889848 -41.62891961 66.3045677 -41.63487244 68.24023438 C-41.64823688 73.48408598 -41.64884394 78.7278654 -41.64630914 83.97173071 C-41.64523767 88.35531444 -41.65012729 92.73888368 -41.65491456 97.1224643 C-41.66600095 107.46727407 -41.66645205 117.81204752 -41.66040039 128.15686035 C-41.65436083 138.81553043 -41.6666732 149.4740685 -41.68797046 160.13271606 C-41.70560491 169.2964483 -41.7115849 178.4601386 -41.70833272 187.62388718 C-41.70652264 193.09141578 -41.70912862 198.5588502 -41.72304726 204.02636337 C-41.73565092 209.16955137 -41.73365743 214.31253404 -41.72063637 219.45571899 C-41.71827656 221.33821813 -41.72098383 223.22073184 -41.72925949 225.10321426 C-41.78213449 238.07052768 -41.80312566 249.55735633 -32.34472656 259.50793457 C-22.37467207 268.78387135 -11.48629502 268.94679932 1.38058472 268.89561462 C3.0881835 268.89979068 4.79577952 268.90526969 6.5033704 268.91193444 C11.18210663 268.92637209 15.86066645 268.92214956 20.53941226 268.91476762 C25.59065318 268.9100341 30.64185603 268.92254745 35.69308472 268.93278503 C45.5836399 268.94997481 55.47413156 268.95081265 65.3646978 268.94557213 C73.40453699 268.94152949 81.44435741 268.94297512 89.48419571 268.94832039 C91.201102 268.94944302 91.201102 268.94944302 92.95269326 268.95058833 C95.27801442 268.95211982 97.60333557 268.95365817 99.92865671 268.9552033 C121.73163638 268.96892903 143.53458015 268.96349017 165.337559 268.95201809 C185.27882542 268.94208594 205.21999906 268.95502597 225.16125117 268.97895228 C245.64307364 269.00334181 266.12485288 269.01295149 286.60668957 269.00629956 C298.10322653 269.00280698 309.59969213 269.00504198 321.09621811 269.02255058 C330.88307695 269.0372707 340.66981418 269.03791043 350.45667063 269.02047967 C355.44842892 269.01196575 360.43996994 269.00982981 365.43171692 269.02513123 C370.0050875 269.03897644 374.57805465 269.03421721 379.15140189 269.01489199 C380.80205673 269.01113118 382.45274387 269.01405631 384.10336994 269.02450364 C396.67020059 269.09836038 407.26774371 267.84611272 416.70996094 258.79309082 C423.20673295 251.16134056 424.80701457 243.22462802 424.79571533 233.45710754 C424.79868645 232.65134771 424.80165758 231.84558788 424.80471873 231.01541108 C424.81338364 228.31800275 424.81491212 225.62063891 424.81640625 222.92321777 C424.82103601 220.98799037 424.82606089 219.05276388 424.83145142 217.11753845 C424.84456282 211.86113273 424.85101801 206.60473977 424.85546207 201.34832025 C424.85839505 198.0625105 424.8625003 194.77670422 424.86696625 191.49089622 C424.88063835 181.20515023 424.89030621 170.9194122 424.89416814 160.63365775 C424.89864722 148.77012134 424.91618944 136.90670024 424.94516873 125.04319888 C424.96680413 115.86679452 424.97687343 106.69042256 424.97820926 97.51399297 C424.97925602 92.03635071 424.98513645 86.5588169 425.00302887 81.08120155 C425.01954145 75.92575363 425.02164954 70.77049528 425.01288986 65.61503029 C425.01212118 63.72769156 425.0164399 61.84034251 425.02634811 59.95302963 C425.09049015 46.96900702 425.12723473 35.47278073 415.65527344 25.50793457 C405.68521894 16.2319978 394.79684189 16.06906982 381.92996216 16.12025452 C380.22236337 16.11607846 378.51476736 16.11059945 376.80717647 16.10393471 C372.12844025 16.08949705 367.44988043 16.09371959 362.77113461 16.10110152 C357.7198937 16.10583504 352.66869084 16.09332169 347.61746216 16.08308411 C337.72690698 16.06589433 327.83641532 16.06505649 317.94584908 16.07029701 C309.90600989 16.07433965 301.86618946 16.07289402 293.82635117 16.06754875 C292.68174697 16.06680033 291.53714278 16.06605191 290.35785361 16.06528081 C288.03253246 16.06374932 285.70721131 16.06221097 283.38189016 16.06066584 C261.5789105 16.04694011 239.77596672 16.05237897 217.97298788 16.06385105 C198.03172145 16.0737832 178.09054782 16.06084317 158.1492957 16.03691686 C137.66747324 16.01252733 117.185694 16.00291765 96.7038573 16.00956959 C85.20732034 16.01306216 73.71085474 16.01082716 62.21432877 15.99331856 C52.42746993 15.97859844 42.6407327 15.97795871 32.85387625 15.99538947 C27.86211796 16.00390339 22.87057693 16.00603933 17.87882996 15.99073792 C13.30545937 15.9768927 8.73249222 15.98165193 4.15914498 16.00097715 C2.50849014 16.00473797 0.857803 16.00181284 -0.79282306 15.9913655 C-13.88852194 15.91440054 -25.14592562 17.24290898 -34.34472656 27.50793457 Z " fill="#000000" transform="translate(64.3447265625,113.4920654296875)"/>
<path d="M0 0 C1.1828851 -0.01043099 2.36577021 -0.02086198 3.58450031 -0.03160906 C5.53564133 -0.01822473 5.53564133 -0.01822473 7.52619934 -0.00457001 C8.92098995 -0.00917773 10.3157757 -0.01552979 11.71055126 -0.02347898 C15.54765504 -0.04021345 19.38436209 -0.03190751 23.22146749 -0.01953411 C27.35787266 -0.01050266 31.49420848 -0.02444385 35.63059998 -0.0354538 C43.73548261 -0.05326404 51.8402173 -0.04938792 59.94510579 -0.03780323 C66.53061086 -0.02877902 73.11607439 -0.02754052 79.70158386 -0.0318985 C80.63795911 -0.03251143 81.57433436 -0.03312436 82.53908461 -0.03375587 C84.44116157 -0.03503474 86.34323851 -0.03633159 88.24531543 -0.03764623 C106.09177616 -0.04905937 123.93815478 -0.03592683 141.78460205 -0.01444477 C157.10614241 0.00342688 172.42756156 0.00032298 187.74909973 -0.01811981 C205.53058653 -0.03951358 223.31200131 -0.04796067 241.09349918 -0.03567076 C242.9886786 -0.03439653 244.88385803 -0.03313904 246.77903748 -0.0318985 C248.17782718 -0.03097285 248.17782718 -0.03097285 249.60487527 -0.03002849 C256.18441091 -0.02657111 262.76390098 -0.03241229 269.34342957 -0.04181671 C277.35892709 -0.0530215 285.37426788 -0.05002876 293.38974738 -0.02869374 C297.48139688 -0.01816274 301.57278482 -0.01409613 305.66443253 -0.02729034 C309.40745459 -0.03917804 313.14997177 -0.03271236 316.89294779 -0.01138014 C318.89400598 -0.00476959 320.895099 -0.01788256 322.89612103 -0.03160906 C324.07900613 -0.02117807 325.26189123 -0.01074708 326.48062134 0 C327.50369794 0.00064941 328.52677454 0.00129882 329.58085346 0.00196791 C332.95892311 0.63884705 334.1392792 1.83450562 336.24031067 4.50336456 C336.89265442 7.16742706 336.89265442 7.16742706 337.17781067 10.12836456 C338.49887061 19.39836636 341.80860699 26.23890217 349.21687317 32.10492706 C354.97962333 36.08767717 360.65070809 37.01903154 367.47077942 37.78070831 C370.87836165 38.66985177 372.02805553 39.79265121 374.24031067 42.50336456 C374.74367523 44.92093658 374.74367523 44.92093658 374.74824524 47.66498566 C374.76516418 49.22959534 374.76516418 49.22959534 374.78242493 50.82581329 C374.77027954 52.53405273 374.77027954 52.53405273 374.75788879 54.27680206 C374.76840271 56.08220459 374.76840271 56.08220459 374.77912903 57.9240799 C374.79371758 61.22188048 374.79029944 64.51867719 374.77761269 67.81642151 C374.7674803 71.26856072 374.77687901 74.72065725 374.78315735 78.17279816 C374.79043311 83.9699142 374.78084812 89.76682636 374.76179504 95.56391144 C374.74002618 102.26464871 374.74707763 108.96489915 374.76910067 115.66562462 C374.78725689 121.42032728 374.78981198 127.17488344 374.77934599 132.92960548 C374.77311218 136.36595514 374.77227202 139.80207602 374.78549194 143.23841095 C374.79919981 147.06910859 374.780197 150.89926163 374.75788879 154.72992706 C374.76598572 155.86875336 374.77408264 157.00757965 374.78242493 158.18091583 C374.77114563 159.22398895 374.75986633 160.26706207 374.74824524 161.34174347 C374.74598309 162.70004776 374.74598309 162.70004776 374.74367523 164.08579254 C374.0747759 167.29839911 372.78027379 168.48624213 370.24031067 170.50336456 C366.88484192 171.33930206 366.88484192 171.33930206 363.05281067 171.87836456 C354.3196931 173.35900052 348.4937128 176.44127121 342.86531067 183.31586456 C338.4465272 189.74873443 337.00899418 196.82431494 335.86531067 204.43695831 C335.24031067 206.50336456 335.24031067 206.50336456 332.24031067 208.50336456 C329.70505196 208.75636423 329.70505196 208.75636423 326.60366917 208.76063347 C324.83232808 208.77030681 324.83232808 208.77030681 323.02520233 208.78017557 C321.72152881 208.77707836 320.41785529 208.77398116 319.07467651 208.7707901 C317.68075308 208.7745247 316.28683175 208.77912545 314.89291376 208.78452075 C311.05365842 208.79678963 307.21448995 208.79648573 303.37521946 208.79413199 C299.23812897 208.79372481 295.10106669 208.80475348 290.96398926 208.81424713 C282.85567028 208.83087898 274.74738038 208.83635765 266.63904578 208.83747189 C260.05066454 208.83842125 253.46229292 208.84252593 246.87391472 208.84887314 C228.20781234 208.86649087 209.54173298 208.87571108 190.87562222 208.87421219 C189.86876482 208.87413228 188.86190742 208.87405237 187.82453918 208.87397003 C186.81645714 208.87388827 185.80837509 208.87380651 184.7697451 208.87372227 C168.42521963 208.87290903 152.08078625 208.8920548 135.73628742 208.92024677 C118.96678252 208.94894435 102.19732258 208.96278881 85.42779249 208.96105921 C76.00774113 208.96039427 66.58778633 208.96593225 57.16775703 208.98741531 C49.14859084 209.00558598 41.12956497 209.01000841 33.11038715 208.99639647 C29.01670886 208.98984613 24.92330007 208.98982353 20.82964706 209.00710297 C17.08475246 209.02274814 13.34034297 209.02005877 9.59546082 209.0025347 C7.59334708 208.99797838 5.59121879 209.01318893 3.58916241 209.02901399 C2.40566061 209.0198164 1.22215881 209.01061881 0.00279331 209.0011425 C-1.02082536 209.00157724 -2.04444404 209.00201197 -3.09908146 209.00245988 C-6.47925513 208.36838341 -7.65813797 207.17359784 -9.75968933 204.50336456 C-10.41203308 201.83930206 -10.41203308 201.83930206 -10.69718933 198.87836456 C-12.01824927 189.60836277 -15.32798565 182.76782695 -22.73625183 176.90180206 C-28.49900199 172.91905195 -34.17008675 171.98769759 -40.99015808 171.22602081 C-44.39774031 170.33687735 -45.5474342 169.21407792 -47.75968933 166.50336456 C-48.26305389 164.08579254 -48.26305389 164.08579254 -48.2676239 161.34174347 C-48.28454285 159.77713379 -48.28454285 159.77713379 -48.30180359 158.18091583 C-48.29370667 157.04208954 -48.28560974 155.90326324 -48.27726746 154.72992706 C-48.28427673 153.52632538 -48.29128601 152.32272369 -48.29850769 151.08264923 C-48.31309625 147.78484865 -48.3096781 144.48805194 -48.29699135 141.19030762 C-48.28685896 137.73816841 -48.29625767 134.28607188 -48.30253601 130.83393097 C-48.30981177 125.03681493 -48.30022678 119.23990277 -48.28117371 113.44281769 C-48.25940485 106.74208042 -48.26645629 100.04182998 -48.28847933 93.34110451 C-48.30663556 87.58640185 -48.30919064 81.83184569 -48.29872465 76.07712364 C-48.29249084 72.64077398 -48.29165068 69.2046531 -48.30487061 65.76831818 C-48.31857847 61.93762053 -48.29957566 58.1074675 -48.27726746 54.27680206 C-48.28536438 53.13797577 -48.2934613 51.99914948 -48.30180359 50.82581329 C-48.29052429 49.78274017 -48.279245 48.73966705 -48.2676239 47.66498566 C-48.2661158 46.75944946 -48.2646077 45.85391327 -48.26305389 44.92093658 C-47.59415457 41.70833002 -46.29965245 40.520487 -43.75968933 38.50336456 C-40.40422058 37.66742706 -40.40422058 37.66742706 -36.57218933 37.12836456 C-27.83907176 35.64772861 -22.01309146 32.56545791 -16.38468933 25.69086456 C-12.67994513 20.30307868 -10.87551229 14.67436621 -10.32218933 8.19086456 C-9.34480372 1.78355888 -6.23668938 0.00395881 0 0 Z M5.24031067 16.50336456 C3.59031067 21.12336456 1.94031067 25.74336456 0.24031067 30.50336456 C-7.97726453 42.75220307 -17.62011554 49.46348634 -31.75968933 53.50336456 C-31.75968933 87.16336456 -31.75968933 120.82336456 -31.75968933 155.50336456 C-25.32468933 157.97836456 -25.32468933 157.97836456 -18.75968933 160.50336456 C-5.66210091 167.9877008 1.14354446 178.16468282 5.24031067 192.50336456 C109.52031067 192.50336456 213.80031067 192.50336456 321.24031067 192.50336456 C322.89031067 187.88336456 324.54031067 183.26336456 326.24031067 178.50336456 C328.536777 175.08032984 330.45895654 172.41246355 333.24031067 169.50336456 C333.84745911 168.86785675 334.45460754 168.23234894 335.08015442 167.57758331 C341.7234424 161.23317536 349.64266153 158.36924761 358.24031067 155.50336456 C358.24031067 121.84336456 358.24031067 88.18336456 358.24031067 53.50336456 C353.95031067 51.85336456 349.66031067 50.20336456 345.24031067 48.50336456 C332.14272225 41.01902832 325.33707688 30.84204631 321.24031067 16.50336456 C216.96031067 16.50336456 112.68031067 16.50336456 5.24031067 16.50336456 Z " fill="#000000" transform="translate(92.75968933105469,151.49663543701172)"/>
<path d="M0 0 C0.83267395 -0.0065712 1.6653479 -0.0131424 2.52325439 -0.01991272 C5.2851978 -0.03966152 8.04708683 -0.05131088 10.80908203 -0.0612793 C12.22204245 -0.06739259 12.22204245 -0.06739259 13.66354752 -0.07362938 C18.64776644 -0.09449536 23.63195777 -0.10879565 28.61621094 -0.11816406 C33.7703251 -0.12923878 38.92400874 -0.16364937 44.0779705 -0.20333576 C48.03619198 -0.22944812 51.99430997 -0.23785103 55.95261002 -0.24144554 C57.85285479 -0.24632426 59.75309456 -0.25797464 61.65325546 -0.27648354 C64.31085356 -0.30076429 66.96732555 -0.29993062 69.625 -0.29296875 C70.80496048 -0.31218384 70.80496048 -0.31218384 72.00875854 -0.33178711 C75.55644187 -0.29786588 77.54382397 -0.12610322 80.40701294 2.05403137 C82.21888399 4.56011976 82.79119457 6.08765276 82.94189453 9.17700195 C82.19944988 12.07928558 81.74871028 13.66326797 79.18505859 15.2956543 C76.59446267 16.31350925 74.51786295 16.49411933 71.73876953 16.59106445 C70.75908203 16.62973633 69.77939453 16.6684082 68.77001953 16.70825195 C67.75423828 16.73918945 66.73845703 16.77012695 65.69189453 16.80200195 C64.66064453 16.84067383 63.62939453 16.8793457 62.56689453 16.91918945 C60.02540513 17.01331869 57.4839202 17.09895174 54.94189453 17.17700195 C55.31580322 17.89605713 55.68971191 18.6151123 56.07495117 19.35595703 C58.30100269 23.63682534 60.1882384 27.36919561 60.94189453 32.17700195 C62.12267578 32.14219727 63.30345703 32.10739258 64.52001953 32.0715332 C66.07729695 32.04338964 67.63458978 32.01609008 69.19189453 31.98950195 C69.96919922 31.96436523 70.74650391 31.93922852 71.54736328 31.91333008 C75.03373476 31.86863301 77.31696899 31.84299003 80.43408203 33.5090332 C82.65941493 35.97073566 82.81091176 37.90243271 82.94189453 41.17700195 C82.23897256 43.98868985 81.77427488 45.59163722 79.37548828 47.27856445 C75.87930353 48.56929077 72.37736505 48.64572758 68.69189453 48.80200195 C67.94681641 48.84067383 67.20173828 48.8793457 66.43408203 48.91918945 C64.60374213 49.01305304 62.7728531 49.09609913 60.94189453 49.17700195 C60.74595703 49.85504883 60.55001953 50.5330957 60.34814453 51.23168945 C56.79516406 62.28880971 50.85520408 69.89613786 40.78564453 75.7746582 C31.89053832 80.16111855 22.73569504 80.7623739 12.94189453 81.17700195 C13.47556641 81.82024414 14.00923828 82.46348633 14.55908203 83.1262207 C20.0290875 89.76025848 25.34084707 96.49650828 30.53710938 103.34692383 C32.08543647 105.36400062 33.66318039 107.35612822 35.24267578 109.34887695 C36.35109678 110.77048062 37.4591748 112.19235179 38.56689453 113.61450195 C39.10032471 114.27667725 39.63375488 114.93885254 40.18334961 115.62109375 C42.56006951 118.70500797 43.85320464 120.54871982 44.40673828 124.4699707 C43.72383332 128.44688781 42.17250857 129.83996201 38.94189453 132.17700195 C35.69189453 133.11450195 35.69189453 133.11450195 31.94189453 132.17700195 C24.79894417 126.24518768 19.47045878 117.6843973 13.98095703 110.25512695 C11.20345008 106.50593344 8.34133498 102.83227047 5.44189453 99.17700195 C4.09021648 97.46091546 2.7406094 95.74322768 1.39208984 94.0246582 C0.36704524 92.71867545 -0.65982609 91.41412548 -1.68798828 90.1105957 C-3.36512556 87.97517654 -5.02556121 85.82765078 -6.68310547 83.67700195 C-7.20453125 83.01829102 -7.72595703 82.35958008 -8.26318359 81.6809082 C-11.14007505 77.91437561 -12.90941171 75.08389595 -13.05810547 70.17700195 C-10.92767069 65.61178456 -10.92767069 65.61178456 -8.05810547 64.17700195 C-5.70567478 64.0692811 -3.35041495 64.02137578 -0.99560547 64.0012207 C0.45623146 63.97799206 1.90805437 63.95387356 3.35986328 63.92895508 C5.63941406 63.89409136 7.91845942 63.86464142 10.19824219 63.85107422 C24.77332371 63.77134125 24.77332371 63.77134125 37.41455078 57.10668945 C37.93919922 56.42864258 38.46384766 55.7505957 39.00439453 55.05200195 C39.82617188 54.02719727 39.82617188 54.02719727 40.66455078 52.98168945 C41.99240133 51.20240581 41.99240133 51.20240581 42.94189453 49.17700195 C42.32437317 49.1689151 41.70685181 49.16082825 41.07061768 49.15249634 C34.64664015 49.06647609 28.2229721 48.96697339 21.79931641 48.85961914 C19.40158279 48.82132291 17.0037916 48.7864712 14.60595703 48.75512695 C11.16043511 48.7094909 7.71530981 48.65149326 4.27001953 48.59106445 C2.6604538 48.57373764 2.6604538 48.57373764 1.01837158 48.55606079 C0.01763611 48.5361911 -0.98309937 48.51632141 -2.01416016 48.49584961 C-2.89352234 48.48252594 -3.77288452 48.46920227 -4.67889404 48.45547485 C-7.2425021 48.1554194 -8.86822974 47.52249664 -11.05810547 46.17700195 C-13.13969567 43.5006717 -13.05398137 42.05946528 -12.93310547 38.61450195 C-12.05810547 35.17700195 -12.05810547 35.17700195 -10.32440186 33.48918152 C-7.64374491 31.93708829 -6.00613309 31.78279437 -2.92236328 31.74462891 C-1.90160706 31.72483475 -0.88085083 31.70504059 0.1708374 31.68464661 C1.81321381 31.67506172 1.81321381 31.67506172 3.48876953 31.6652832 C4.61510803 31.647332 5.74144653 31.6293808 6.9019165 31.61088562 C10.49853779 31.556714 14.09502584 31.52286407 17.69189453 31.48950195 C20.13071518 31.45633503 22.56951824 31.42184596 25.00830078 31.38598633 C30.98604589 31.3009835 36.9638081 31.2326625 42.94189453 31.17700195 C42.04161339 29.73360737 41.12849634 28.29821485 40.21020508 26.86621094 C39.70313522 26.06602036 39.19606537 25.26582977 38.67362976 24.44139099 C35.53103987 20.33219117 31.87968836 18.50302786 26.94189453 17.17700195 C21.16236206 16.57558402 15.43462518 16.55858198 9.62939453 16.61450195 C7.32240521 16.63115804 5.01668103 16.64014364 2.70967102 16.62477112 C1.28501443 16.61556457 -0.1399147 16.62441001 -1.56428528 16.65440369 C-5.08055962 16.63497796 -6.97089826 16.23223148 -9.96899414 14.33349609 C-12.64116538 11.57513585 -13.05810547 9.99779556 -13.05810547 6.17700195 C-10.00310558 -0.36942638 -6.65033969 0.02261588 0 0 Z " fill="#000000" transform="translate(221.05810546875,189.822998046875)"/>
<path d="M0 0 C7.95257513 8.31405582 10.30853921 16.572716 10.1015625 27.7734375 C9.8020583 33.25763632 7.81704671 37.37666483 4.75 41.875 C4.151875 42.803125 3.55375 43.73125 2.9375 44.6875 C-3.25992892 50.88492892 -10.71978421 54.14186926 -19.5 54.25 C-28.71208605 54.07183679 -35.75594078 51.25493303 -42.4921875 44.94140625 C-48.23703665 38.18801692 -50.65195561 30.38653608 -50.5234375 21.66015625 C-49.66733204 12.94011062 -45.87278591 5.57939177 -39.25 -0.125 C-26.64901366 -8.66046541 -12.69787801 -8.3024587 0 0 Z M-31.5625 15 C-33.86409929 18.92124324 -34.58416232 22.33660942 -34.25 26.875 C-32.75885064 31.20683054 -30.23780201 34.55950206 -26.25 36.875 C-22.63069302 38.08143566 -20.05768995 38.19768559 -16.25 37.875 C-11.63137213 35.29922676 -7.94359737 32.9557921 -6.25 27.875 C-5.90469722 22.52280697 -5.76192041 19.20502984 -9.25 14.875 C-12.70933352 11.83753642 -14.8678488 9.98131932 -19.5 9.625 C-24.71835206 9.97289014 -27.73404833 11.48196333 -31.5625 15 Z " fill="#000000" transform="translate(155.25,232.125)"/>
<path d="M0 0 C7.71817308 4.46702483 13.16439959 10.65766152 15.890625 19.23828125 C17.49194004 27.7732904 16.60230951 35.77116735 12.28125 43.3203125 C7.04357978 50.81381099 1.06669893 54.77317989 -7.71875 57.3203125 C-17.05396534 58.32762557 -24.32091926 57.30121267 -31.90625 51.70703125 C-38.67960747 46.09161909 -43.14253784 39.97523188 -44.0546875 31.0234375 C-44.16900395 20.91786312 -43.01306043 13.48882603 -35.96875 5.9453125 C-26.0312269 -3.24921822 -12.46738048 -5.78842665 0 0 Z M-26.09375 20.0703125 C-28.08752185 24.05785619 -28.5753265 26.95002422 -27.71875 31.3203125 C-25.31992067 36.11797116 -22.49460774 38.8855615 -17.71875 41.3203125 C-12.49530808 41.97324274 -9.13357276 41.1654205 -4.71875 38.3203125 C-0.88990133 34.80191101 0.0361943 31.56326443 0.37890625 26.53125 C0.17049144 21.81273874 -1.85046434 19.12347673 -5.21875 16.0078125 C-13.19920708 10.62100397 -20.18991644 13.23429469 -26.09375 20.0703125 Z " fill="#000000" transform="translate(389.71875,228.6796875)"/>
</svg>
