<svg width="24" height="24" viewBox="0 0 24 24" fill="none" xmlns="http://www.w3.org/2000/svg">
<path fill-rule="evenodd" clip-rule="evenodd" d="M12 3C7.02944 3 3 7.02944 3 12C3 16.9706 7.02944 21 12 21C16.9706 21 21 16.9706 21 12C21 7.02944 16.9706 3 12 3ZM2 12C2 6.47715 6.47715 2 12 2C17.5228 2 22 6.47715 22 12C22 17.5228 17.5228 22 12 22C6.47715 22 2 17.5228 2 12Z" fill="white"/>
<path fill-rule="evenodd" clip-rule="evenodd" d="M12 7C9.79086 7 8 8.79086 8 11C8 13.2091 9.79086 15 12 15C14.2091 15 16 13.2091 16 11C16 8.79086 14.2091 7 12 7ZM7 11C7 8.23858 9.23858 6 12 6C14.7614 6 17 8.23858 17 11C17 13.7614 14.7614 16 12 16C9.23858 16 7 13.7614 7 11Z" fill="white"/>
<path fill-rule="evenodd" clip-rule="evenodd" d="M11.9999 16C9.44936 16 7.17244 17.1947 5.71366 19.0582L4.92624 18.4418C6.56746 16.3453 9.13054 15 11.9999 15C14.7949 15 17.2943 16.2712 18.9456 18.2717L18.1743 18.9083C16.7056 17.1288 14.485 16 11.9999 16Z" fill="white"/>
</svg>
